<svg width="105" height="104" viewBox="0 0 105 104" fill="none" xmlns="http://www.w3.org/2000/svg">
<g filter="url(#filter0_d)">
<ellipse cx="52.5" cy="49" rx="43.5" ry="43" fill="white"/>
</g>
<path d="M19.7011 50.845C19.7011 49.985 19.8761 49.235 20.2261 48.595C20.5761 47.945 21.0611 47.445 21.6811 47.095C22.3011 46.735 23.0111 46.555 23.8111 46.555C24.8411 46.555 25.6911 46.815 26.3611 47.335C27.0411 47.845 27.4961 48.565 27.7261 49.495H25.4611C25.3411 49.135 25.1361 48.855 24.8461 48.655C24.5661 48.445 24.2161 48.34 23.7961 48.34C23.1961 48.34 22.7211 48.56 22.3711 49C22.0211 49.43 21.8461 50.045 21.8461 50.845C21.8461 51.635 22.0211 52.25 22.3711 52.69C22.7211 53.12 23.1961 53.335 23.7961 53.335C24.6461 53.335 25.2011 52.955 25.4611 52.195H27.7261C27.4961 53.095 27.0411 53.81 26.3611 54.34C25.6811 54.87 24.8311 55.135 23.8111 55.135C23.0111 55.135 22.3011 54.96 21.6811 54.61C21.0611 54.25 20.5761 53.75 20.2261 53.11C19.8761 52.46 19.7011 51.705 19.7011 50.845ZM32.9545 55.135C32.1545 55.135 31.4345 54.96 30.7945 54.61C30.1545 54.25 29.6495 53.745 29.2795 53.095C28.9195 52.445 28.7395 51.695 28.7395 50.845C28.7395 49.995 28.9245 49.245 29.2945 48.595C29.6745 47.945 30.1895 47.445 30.8395 47.095C31.4895 46.735 32.2145 46.555 33.0145 46.555C33.8145 46.555 34.5395 46.735 35.1895 47.095C35.8395 47.445 36.3495 47.945 36.7195 48.595C37.0995 49.245 37.2895 49.995 37.2895 50.845C37.2895 51.695 37.0945 52.445 36.7045 53.095C36.3245 53.745 35.8045 54.25 35.1445 54.61C34.4945 54.96 33.7645 55.135 32.9545 55.135ZM32.9545 53.305C33.3345 53.305 33.6895 53.215 34.0195 53.035C34.3595 52.845 34.6295 52.565 34.8295 52.195C35.0295 51.825 35.1295 51.375 35.1295 50.845C35.1295 50.055 34.9195 49.45 34.4995 49.03C34.0895 48.6 33.5845 48.385 32.9845 48.385C32.3845 48.385 31.8795 48.6 31.4695 49.03C31.0695 49.45 30.8695 50.055 30.8695 50.845C30.8695 51.635 31.0645 52.245 31.4545 52.675C31.8545 53.095 32.3545 53.305 32.9545 53.305ZM43.4349 46.57C44.4249 46.57 45.2249 46.885 45.8349 47.515C46.4449 48.135 46.7499 49.005 46.7499 50.125V55H44.6499V50.41C44.6499 49.75 44.4849 49.245 44.1549 48.895C43.8249 48.535 43.3749 48.355 42.8049 48.355C42.2249 48.355 41.7649 48.535 41.4249 48.895C41.0949 49.245 40.9299 49.75 40.9299 50.41V55H38.8299V46.69H40.9299V47.725C41.2099 47.365 41.5649 47.085 41.9949 46.885C42.4349 46.675 42.9149 46.57 43.4349 46.57ZM51.1919 48.415V52.435C51.1919 52.715 51.2569 52.92 51.3869 53.05C51.5269 53.17 51.7569 53.23 52.0769 53.23H53.0519V55H51.7319C49.9619 55 49.0769 54.14 49.0769 52.42V48.415H48.0869V46.69H49.0769V44.635H51.1919V46.69H53.0519V48.415H51.1919ZM55.6273 45.7C55.2573 45.7 54.9473 45.585 54.6973 45.355C54.4573 45.115 54.3373 44.82 54.3373 44.47C54.3373 44.12 54.4573 43.83 54.6973 43.6C54.9473 43.36 55.2573 43.24 55.6273 43.24C55.9973 43.24 56.3023 43.36 56.5423 43.6C56.7923 43.83 56.9173 44.12 56.9173 44.47C56.9173 44.82 56.7923 45.115 56.5423 45.355C56.3023 45.585 55.9973 45.7 55.6273 45.7ZM56.6623 46.69V55H54.5623V46.69H56.6623ZM63.3421 46.57C64.3321 46.57 65.1321 46.885 65.7421 47.515C66.3521 48.135 66.6571 49.005 66.6571 50.125V55H64.5571V50.41C64.5571 49.75 64.3921 49.245 64.0621 48.895C63.7321 48.535 63.2821 48.355 62.7121 48.355C62.1321 48.355 61.6721 48.535 61.3321 48.895C61.0021 49.245 60.8371 49.75 60.8371 50.41V55H58.7371V46.69H60.8371V47.725C61.1171 47.365 61.4721 47.085 61.9021 46.885C62.3421 46.675 62.8221 46.57 63.3421 46.57ZM76.4991 46.69V55H74.3841V53.95C74.1141 54.31 73.7591 54.595 73.3191 54.805C72.8891 55.005 72.4191 55.105 71.9091 55.105C71.2591 55.105 70.6841 54.97 70.1841 54.7C69.6841 54.42 69.2891 54.015 68.9991 53.485C68.7191 52.945 68.5791 52.305 68.5791 51.565V46.69H70.6791V51.265C70.6791 51.925 70.8441 52.435 71.1741 52.795C71.5041 53.145 71.9541 53.32 72.5241 53.32C73.1041 53.32 73.5591 53.145 73.8891 52.795C74.2191 52.435 74.3841 51.925 74.3841 51.265V46.69H76.4991ZM86.2961 50.665C86.2961 50.965 86.2761 51.235 86.2361 51.475H80.1611C80.2111 52.075 80.4211 52.545 80.7911 52.885C81.1611 53.225 81.6161 53.395 82.1561 53.395C82.9361 53.395 83.4911 53.06 83.8211 52.39H86.0861C85.8461 53.19 85.3861 53.85 84.7061 54.37C84.0261 54.88 83.1911 55.135 82.2011 55.135C81.4011 55.135 80.6811 54.96 80.0411 54.61C79.4111 54.25 78.9161 53.745 78.5561 53.095C78.2061 52.445 78.0311 51.695 78.0311 50.845C78.0311 49.985 78.2061 49.23 78.5561 48.58C78.9061 47.93 79.3961 47.43 80.0261 47.08C80.6561 46.73 81.3811 46.555 82.2011 46.555C82.9911 46.555 83.6961 46.725 84.3161 47.065C84.9461 47.405 85.4311 47.89 85.7711 48.52C86.1211 49.14 86.2961 49.855 86.2961 50.665ZM84.1211 50.065C84.1111 49.525 83.9161 49.095 83.5361 48.775C83.1561 48.445 82.6911 48.28 82.1411 48.28C81.6211 48.28 81.1811 48.44 80.8211 48.76C80.4711 49.07 80.2561 49.505 80.1761 50.065H84.1211Z" fill="#BA00D9"/>
<defs>
<filter id="filter0_d" x="0" y="0" width="105" height="104" filterUnits="userSpaceOnUse" color-interpolation-filters="sRGB">
<feFlood flood-opacity="0" result="BackgroundImageFix"/>
<feColorMatrix in="SourceAlpha" type="matrix" values="0 0 0 0 0 0 0 0 0 0 0 0 0 0 0 0 0 0 127 0"/>
<feOffset dy="3"/>
<feGaussianBlur stdDeviation="4.5"/>
<feColorMatrix type="matrix" values="0 0 0 0 0 0 0 0 0 0 0 0 0 0 0 0 0 0 0.25 0"/>
<feBlend mode="normal" in2="BackgroundImageFix" result="effect1_dropShadow"/>
<feBlend mode="normal" in="SourceGraphic" in2="effect1_dropShadow" result="shape"/>
</filter>
</defs>
</svg>
