<svg width="80" height="80" viewBox="0 0 80 80" fill="none" xmlns="http://www.w3.org/2000/svg">
<path d="M74.1166 32.2689C74.1166 48.7246 58.6013 62.5378 38.835 62.5378C19.0687 62.5378 3.55347 48.7246 3.55347 32.2689C3.55347 15.8132 19.0687 2 38.835 2C58.6013 2 74.1166 15.8132 74.1166 32.2689Z" fill="white" stroke="url(#paint0_linear)" stroke-width="4"/>
<path d="M46.1979 46.0065C41.6985 44.3197 24.9582 31.6596 32.4557 35.7723C32.8557 35.9917 33.2342 36.165 33.5931 36.2962C44.4834 40.2751 55.6419 26.6739 60.6331 17.934C60.8552 17.5449 60.767 17.2794 60.2693 17.1969C51.832 15.7979 47.1845 24.5249 47.6974 31.4385C48.2453 38.823 48.9081 47.0225 46.1979 46.0065Z" fill="url(#paint1_radial)" fill-opacity="0.77"/>
<path d="M55.3204 39.1509C55.3204 44.7514 50.6542 57.1787 39.7156 57.1787C28.7769 57.1787 23.6462 44.7514 23.6462 39.1509C23.6462 33.5503 23.6462 37.273 39.7156 47.0381C55.7849 56.8031 55.3204 33.5503 55.3204 39.1509Z" fill="url(#paint2_linear)"/>
<path d="M17.01 69.6578C16.85 69.3645 16.63 69.1411 16.35 68.9878C16.07 68.8345 15.7433 68.7578 15.37 68.7578C14.9566 68.7578 14.59 68.8511 14.27 69.0378C13.95 69.2245 13.7 69.4911 13.52 69.8378C13.34 70.1845 13.25 70.5845 13.25 71.0378C13.25 71.5045 13.34 71.9111 13.52 72.2578C13.7066 72.6045 13.9633 72.8711 14.29 73.0578C14.6166 73.2445 14.9966 73.3378 15.43 73.3378C15.9633 73.3378 16.4 73.1978 16.74 72.9178C17.08 72.6311 17.3033 72.2345 17.41 71.7278H15.01V70.6578H18.79V71.8778C18.6966 72.3645 18.4966 72.8145 18.19 73.2278C17.8833 73.6411 17.4866 73.9745 17 74.2278C16.52 74.4745 15.98 74.5978 15.38 74.5978C14.7066 74.5978 14.0966 74.4478 13.55 74.1478C13.01 73.8411 12.5833 73.4178 12.27 72.8778C11.9633 72.3378 11.81 71.7245 11.81 71.0378C11.81 70.3511 11.9633 69.7378 12.27 69.1978C12.5833 68.6511 13.01 68.2278 13.55 67.9278C14.0966 67.6211 14.7033 67.4678 15.37 67.4678C16.1566 67.4678 16.84 67.6611 17.42 68.0478C18 68.4278 18.4 68.9645 18.62 69.6578H17.01ZM24.9757 71.6478C24.9757 71.8478 24.9624 72.0278 24.9357 72.1878H20.8857C20.9191 72.5878 21.0591 72.9011 21.3057 73.1278C21.5524 73.3545 21.8557 73.4678 22.2157 73.4678C22.7357 73.4678 23.1057 73.2445 23.3257 72.7978H24.8357C24.6757 73.3311 24.3691 73.7711 23.9157 74.1178C23.4624 74.4578 22.9057 74.6278 22.2457 74.6278C21.7124 74.6278 21.2324 74.5111 20.8057 74.2778C20.3857 74.0378 20.0557 73.7011 19.8157 73.2678C19.5824 72.8345 19.4657 72.3345 19.4657 71.7678C19.4657 71.1945 19.5824 70.6911 19.8157 70.2578C20.0491 69.8245 20.3757 69.4911 20.7957 69.2578C21.2157 69.0245 21.6991 68.9078 22.2457 68.9078C22.7724 68.9078 23.2424 69.0211 23.6557 69.2478C24.0757 69.4745 24.3991 69.7978 24.6257 70.2178C24.8591 70.6311 24.9757 71.1078 24.9757 71.6478ZM23.5257 71.2478C23.5191 70.8878 23.3891 70.6011 23.1357 70.3878C22.8824 70.1678 22.5724 70.0578 22.2057 70.0578C21.8591 70.0578 21.5657 70.1645 21.3257 70.3778C21.0924 70.5845 20.9491 70.8745 20.8957 71.2478H23.5257ZM27.6276 70.1478V72.8278C27.6276 73.0145 27.671 73.1511 27.7576 73.2378C27.851 73.3178 28.0043 73.3578 28.2176 73.3578H28.8676V74.5378H27.9876C26.8076 74.5378 26.2176 73.9645 26.2176 72.8178V70.1478H25.5576V68.9978H26.2176V67.6278H27.6276V68.9978H28.8676V70.1478H27.6276ZM34.3774 74.6278C33.924 74.6278 33.5174 74.5478 33.1574 74.3878C32.7974 74.2211 32.5107 73.9978 32.2974 73.7178C32.0907 73.4378 31.9774 73.1278 31.9574 72.7878H33.3674C33.394 73.0011 33.4974 73.1778 33.6774 73.3178C33.864 73.4578 34.094 73.5278 34.3674 73.5278C34.634 73.5278 34.8407 73.4745 34.9874 73.3678C35.1407 73.2611 35.2174 73.1245 35.2174 72.9578C35.2174 72.7778 35.124 72.6445 34.9374 72.5578C34.7574 72.4645 34.4674 72.3645 34.0674 72.2578C33.654 72.1578 33.314 72.0545 33.0474 71.9478C32.7874 71.8411 32.5607 71.6778 32.3674 71.4578C32.1807 71.2378 32.0874 70.9411 32.0874 70.5678C32.0874 70.2611 32.174 69.9811 32.3474 69.7278C32.5274 69.4745 32.7807 69.2745 33.1074 69.1278C33.4407 68.9811 33.8307 68.9078 34.2774 68.9078C34.9374 68.9078 35.464 69.0745 35.8574 69.4078C36.2507 69.7345 36.4674 70.1778 36.5074 70.7378H35.1674C35.1474 70.5178 35.054 70.3445 34.8874 70.2178C34.7274 70.0845 34.5107 70.0178 34.2374 70.0178C33.984 70.0178 33.7874 70.0645 33.6474 70.1578C33.514 70.2511 33.4474 70.3811 33.4474 70.5478C33.4474 70.7345 33.5407 70.8778 33.7274 70.9778C33.914 71.0711 34.204 71.1678 34.5974 71.2678C34.9974 71.3678 35.3274 71.4711 35.5874 71.5778C35.8474 71.6845 36.0707 71.8511 36.2574 72.0778C36.4507 72.2978 36.5507 72.5911 36.5574 72.9578C36.5574 73.2778 36.4674 73.5645 36.2874 73.8178C36.114 74.0711 35.8607 74.2711 35.5274 74.4178C35.2007 74.5578 34.8174 74.6278 34.3774 74.6278ZM39.3366 70.1478V72.8278C39.3366 73.0145 39.3799 73.1511 39.4666 73.2378C39.5599 73.3178 39.7133 73.3578 39.9266 73.3578H40.5766V74.5378H39.6966C38.5166 74.5378 37.9266 73.9645 37.9266 72.8178V70.1478H37.2666V68.9978H37.9266V67.6278H39.3366V68.9978H40.5766V70.1478H39.3366ZM41.2236 71.7478C41.2236 71.1878 41.3336 70.6911 41.5536 70.2578C41.7802 69.8245 42.0836 69.4911 42.4636 69.2578C42.8502 69.0245 43.2802 68.9078 43.7536 68.9078C44.1669 68.9078 44.5269 68.9911 44.8336 69.1578C45.1469 69.3245 45.3969 69.5345 45.5836 69.7878V68.9978H46.9936V74.5378H45.5836V73.7278C45.4036 73.9878 45.1536 74.2045 44.8336 74.3778C44.5202 74.5445 44.1569 74.6278 43.7436 74.6278C43.2769 74.6278 42.8502 74.5078 42.4636 74.2678C42.0836 74.0278 41.7802 73.6911 41.5536 73.2578C41.3336 72.8178 41.2236 72.3145 41.2236 71.7478ZM45.5836 71.7678C45.5836 71.4278 45.5169 71.1378 45.3836 70.8978C45.2502 70.6511 45.0702 70.4645 44.8436 70.3378C44.6169 70.2045 44.3736 70.1378 44.1136 70.1378C43.8536 70.1378 43.6136 70.2011 43.3936 70.3278C43.1736 70.4545 42.9936 70.6411 42.8536 70.8878C42.7202 71.1278 42.6536 71.4145 42.6536 71.7478C42.6536 72.0811 42.7202 72.3745 42.8536 72.6278C42.9936 72.8745 43.1736 73.0645 43.3936 73.1978C43.6202 73.3311 43.8602 73.3978 44.1136 73.3978C44.3736 73.3978 44.6169 73.3345 44.8436 73.2078C45.0702 73.0745 45.2502 72.8878 45.3836 72.6478C45.5169 72.4011 45.5836 72.1078 45.5836 71.7678ZM49.7609 69.8578C49.9409 69.5645 50.1742 69.3345 50.4609 69.1678C50.7542 69.0011 51.0876 68.9178 51.4609 68.9178V70.3878H51.0909C50.6509 70.3878 50.3176 70.4911 50.0909 70.6978C49.8709 70.9045 49.7609 71.2645 49.7609 71.7778V74.5378H48.3609V68.9978H49.7609V69.8578ZM54.0339 70.1478V72.8278C54.0339 73.0145 54.0772 73.1511 54.1639 73.2378C54.2572 73.3178 54.4105 73.3578 54.6239 73.3578H55.2739V74.5378H54.3939C53.2139 74.5378 52.6239 73.9645 52.6239 72.8178V70.1478H51.9639V68.9978H52.6239V67.6278H54.0339V68.9978H55.2739V70.1478H54.0339ZM61.4308 71.6478C61.4308 71.8478 61.4175 72.0278 61.3908 72.1878H57.3408C57.3742 72.5878 57.5142 72.9011 57.7608 73.1278C58.0075 73.3545 58.3108 73.4678 58.6708 73.4678C59.1908 73.4678 59.5608 73.2445 59.7808 72.7978H61.2908C61.1308 73.3311 60.8242 73.7711 60.3708 74.1178C59.9175 74.4578 59.3608 74.6278 58.7008 74.6278C58.1675 74.6278 57.6875 74.5111 57.2608 74.2778C56.8408 74.0378 56.5108 73.7011 56.2708 73.2678C56.0375 72.8345 55.9208 72.3345 55.9208 71.7678C55.9208 71.1945 56.0375 70.6911 56.2708 70.2578C56.5042 69.8245 56.8308 69.4911 57.2508 69.2578C57.6708 69.0245 58.1542 68.9078 58.7008 68.9078C59.2275 68.9078 59.6975 69.0211 60.1108 69.2478C60.5308 69.4745 60.8542 69.7978 61.0808 70.2178C61.3142 70.6311 61.4308 71.1078 61.4308 71.6478ZM59.9808 71.2478C59.9742 70.8878 59.8442 70.6011 59.5908 70.3878C59.3375 70.1678 59.0275 70.0578 58.6608 70.0578C58.3142 70.0578 58.0208 70.1645 57.7808 70.3778C57.5475 70.5845 57.4042 70.8745 57.3508 71.2478H59.9808ZM62.0927 71.7478C62.0927 71.1878 62.2027 70.6911 62.4227 70.2578C62.6494 69.8245 62.956 69.4911 63.3427 69.2578C63.7294 69.0245 64.1594 68.9078 64.6327 68.9078C64.9927 68.9078 65.336 68.9878 65.6627 69.1478C65.9894 69.3011 66.2494 69.5078 66.4427 69.7678V67.1378H67.8627V74.5378H66.4427V73.7178C66.2694 73.9911 66.026 74.2111 65.7127 74.3778C65.3994 74.5445 65.036 74.6278 64.6227 74.6278C64.156 74.6278 63.7294 74.5078 63.3427 74.2678C62.956 74.0278 62.6494 73.6911 62.4227 73.2578C62.2027 72.8178 62.0927 72.3145 62.0927 71.7478ZM66.4527 71.7678C66.4527 71.4278 66.386 71.1378 66.2527 70.8978C66.1194 70.6511 65.9394 70.4645 65.7127 70.3378C65.486 70.2045 65.2427 70.1378 64.9827 70.1378C64.7227 70.1378 64.4827 70.2011 64.2627 70.3278C64.0427 70.4545 63.8627 70.6411 63.7227 70.8878C63.5894 71.1278 63.5227 71.4145 63.5227 71.7478C63.5227 72.0811 63.5894 72.3745 63.7227 72.6278C63.8627 72.8745 64.0427 73.0645 64.2627 73.1978C64.4894 73.3311 64.7294 73.3978 64.9827 73.3978C65.2427 73.3978 65.486 73.3345 65.7127 73.2078C65.9394 73.0745 66.1194 72.8878 66.2527 72.6478C66.386 72.4011 66.4527 72.1078 66.4527 71.7678Z" fill="#BA00D9"/>
<defs>
<linearGradient id="paint0_linear" x1="38.835" y1="0" x2="38.835" y2="64.5378" gradientUnits="userSpaceOnUse">
<stop stop-color="#2FEE92"/>
<stop offset="1" stop-color="#BA00D9"/>
</linearGradient>
<radialGradient id="paint1_radial" cx="0" cy="0" r="1" gradientUnits="userSpaceOnUse" gradientTransform="translate(48.3326 6.39703) rotate(157.516) scale(1.23278e-06)">
<stop stop-color="#BA00D9"/>
<stop offset="1" stop-color="#2FEE92"/>
</radialGradient>
<linearGradient id="paint2_linear" x1="39.484" y1="36.5309" x2="39.484" y2="57.1787" gradientUnits="userSpaceOnUse">
<stop stop-color="#2FEE92"/>
<stop offset="1" stop-color="#BA00D9" stop-opacity="0.72"/>
</linearGradient>
</defs>
</svg>
