<svg width="375" height="667" viewBox="0 0 375 667" fill="none" xmlns="http://www.w3.org/2000/svg">
<g clip-path="url(#clip0)">
<g filter="url(#filter0_d)">
<path d="M373.021 0H1.97876V663.024H373.021V0Z" fill="black"/>
<path d="M-270.295 591.766C-274.529 583.923 -271.695 574.231 -263.915 569.937L94.3038 372.378C102.326 367.954 112.515 370.963 116.881 379.048L132.782 408.489C137.016 416.329 134.182 426.025 126.402 430.316L-231.817 627.875C-239.839 632.303 -250.028 629.291 -254.394 621.205L-270.295 591.766Z" fill="#BA00D9"/>
<path d="M-315.728 747.651C-320.162 739.928 -317.578 730.161 -309.911 725.668L43.109 518.878C51.0152 514.246 61.2777 516.99 65.8504 524.962L82.5028 553.978C86.937 561.707 84.353 571.473 76.6863 575.966L-276.334 782.756C-284.24 787.383 -294.503 784.64 -299.076 776.672L-315.728 747.651Z" fill="#BA00D9"/>
<path opacity="0.77" d="M117.48 711.757C112.771 704.028 115.25 694.038 123.017 689.435L437.729 503.048C445.496 498.451 455.611 500.981 460.319 508.704L479.399 540.006C484.108 547.73 481.629 557.72 473.861 562.323L159.15 748.71C151.383 753.312 141.269 750.778 136.56 743.054L117.48 711.757Z" fill="#BA00D9"/>
<path d="M191.079 704.292C186.37 696.568 188.849 686.573 196.617 681.975L431.902 542.626C439.669 538.024 449.784 540.558 454.493 548.282L473.572 579.584C478.282 587.308 475.802 597.298 468.035 601.901L232.749 741.25C224.982 745.847 214.868 743.313 210.159 735.589L191.079 704.292Z" fill="#2FEE92"/>
<path opacity="0.61" d="M0.879069 680.275C-3.82993 672.552 -1.35069 662.557 6.41662 657.959L258.994 508.366C266.762 503.769 276.876 506.299 281.585 514.027L300.665 545.325C305.374 553.048 302.894 563.043 295.127 567.641L42.5492 717.234C34.7819 721.831 24.6678 719.296 19.9588 711.573L0.879069 680.275Z" fill="#E597FF" fill-opacity="0.97"/>
<path d="M-22.8304 512.203C-27.5394 504.48 -25.0602 494.487 -17.2929 489.887L376.572 256.619C384.339 252.019 394.453 254.552 399.162 262.276L418.242 293.575C422.951 301.301 420.472 311.292 412.704 315.892L18.8397 549.162C11.0724 553.759 0.958352 551.229 -3.75065 543.501L-22.8304 512.203Z" fill="#2FEE92" fill-opacity="0.77"/>
<path opacity="0.61" d="M-38.5609 564.067C-43.2699 556.344 -40.7906 546.354 -33.0233 541.751L323.322 330.705C331.089 326.105 341.203 328.638 345.913 336.363L364.992 367.662C369.701 375.387 367.222 385.378 359.455 389.978L3.10923 601.026C-4.65806 605.623 -14.7721 603.093 -19.4811 595.37L-38.5609 564.067Z" fill="#BA00D9"/>
<path d="M123.956 547.919C119.247 540.196 121.726 530.205 129.493 525.603L444.205 339.216C451.972 334.615 462.086 337.149 466.795 344.873L485.875 376.173C490.584 383.897 488.105 393.889 480.337 398.489L165.626 584.878C157.858 589.48 147.744 586.945 143.036 579.222L123.956 547.919Z" fill="#E597FF" fill-opacity="0.72"/>
<path opacity="0.61" d="M-38.9671 623.436C-43.6761 615.713 -41.1969 605.717 -33.4296 601.12L432.568 325.13C440.335 320.53 450.449 323.063 455.158 330.788L474.238 362.087C478.947 369.812 476.467 379.803 468.7 384.403L2.70298 660.39C-5.0643 664.992 -15.1784 662.457 -19.8873 654.734L-38.9671 623.436Z" fill="#BA00D9"/>
<path opacity="0.88" d="M-22.6148 630.873C-27.3238 623.15 -24.8446 613.159 -17.0773 608.557L25.577 583.294C33.3443 578.696 43.4583 581.226 48.1673 588.955L65.4649 617.329C70.1737 625.053 67.6946 635.043 59.927 639.646L17.2729 664.904C9.50562 669.507 -0.608375 666.972 -5.31737 659.248L-22.6148 630.873Z" fill="#2FEE92"/>
<path opacity="0.87" d="M-25.2535 716.041C-29.9625 708.312 -27.4833 698.322 -19.716 693.72L395.636 447.728C403.403 443.128 413.517 445.661 418.226 453.386L437.306 484.685C442.015 492.41 439.535 502.402 431.768 507L16.4166 752.994C8.64928 757.597 -1.46474 755.062 -6.17375 747.338L-25.2535 716.041Z" fill="#BA00D9"/>
<path d="M293.32 368.632C288.611 360.907 291.09 350.916 298.857 346.316L567.714 187.085C575.481 182.485 585.594 185.018 590.303 192.742L609.385 224.042C614.09 231.766 611.611 241.758 603.844 246.358L334.99 405.589C327.223 410.189 317.108 407.656 312.4 399.931L293.32 368.632Z" fill="#E597FF" fill-opacity="0.97"/>
<path d="M-94.5628 530.623C-99.2311 522.964 -96.8391 513.063 -89.1966 508.411L554.268 116.6C562.04 111.865 572.276 114.363 577.025 122.154L594.444 150.724C599.109 158.382 596.72 168.284 589.076 172.937L-54.3854 564.748C-62.1615 569.48 -72.3973 566.985 -77.1471 559.191L-94.5628 530.623Z" fill="#BA00D9"/>
<path d="M143.464 782.368C138.827 774.764 141.152 764.928 148.697 760.236L496.133 544.112C503.915 539.271 514.245 541.741 519.029 549.584L536.438 578.148C541.078 585.757 538.753 595.588 531.204 600.28L183.77 816.404C175.989 821.245 165.658 818.775 160.876 810.932L143.464 782.368Z" fill="#BA00D9"/>
<path opacity="0.88" d="M195.325 322.38C199.898 330.187 197.245 340.135 189.4 344.6L-9.05691 457.538C-16.9022 462.002 -26.9691 459.293 -31.542 451.486L-50.0597 419.871C-54.6325 412.064 -51.9798 402.116 -44.1344 397.652L154.322 284.714C162.168 280.249 172.234 282.959 176.807 290.766L195.325 322.38Z" fill="white" fill-opacity="0.87"/>
<path d="M-52.7124 449.678C-57.4211 441.953 -54.9421 431.962 -47.1748 427.362L284.385 230.994C292.153 226.394 302.267 228.927 306.975 236.652L326.055 267.951C330.764 275.676 328.285 285.667 320.518 290.267L-11.0423 486.635C-18.8096 491.235 -28.9236 488.702 -33.6326 480.978L-52.7124 449.678Z" fill="#E597FF" fill-opacity="0.5"/>
<path opacity="0.88" d="M483.501 156.419C488.074 164.227 485.421 174.174 477.575 178.639L279.119 291.577C271.273 296.042 261.207 293.332 256.634 285.525L238.116 253.911C233.543 246.104 236.196 236.156 244.041 231.691L442.498 118.753C450.343 114.289 460.41 116.998 464.983 124.805L483.501 156.419Z" fill="white"/>
<path opacity="0.61" d="M237.85 180.337C242.422 188.144 239.77 198.092 231.924 202.557L-23.2718 347.784C-31.1171 352.249 -41.184 349.539 -45.7568 341.732L-64.2746 310.118C-68.8473 302.311 -66.1946 292.363 -58.3493 287.898L196.847 142.671C204.692 138.206 214.759 140.915 219.332 148.723L237.85 180.337Z" fill="#E597FF" fill-opacity="0.97"/>
<path d="M196.191 5.3529C200.764 13.1598 198.111 23.1079 190.265 27.5725L-83.5293 183.384C-91.3746 187.849 -101.442 185.139 -106.014 177.332L-124.532 145.718C-129.105 137.911 -126.452 127.963 -118.607 123.498L155.188 -32.3133C163.033 -36.7779 173.1 -34.0684 177.673 -26.2615L196.191 5.3529Z" fill="#2FEE92"/>
<path opacity="0.61" d="M502.638 91.5246C507.214 99.3313 504.563 109.28 496.716 113.744L178.743 294.696C170.897 299.16 160.831 296.451 156.258 288.644L137.74 257.03C133.167 249.223 135.82 239.275 143.665 234.81L461.638 53.8585C469.483 49.3937 479.55 52.103 484.122 59.9102L502.638 91.5246Z" fill="#BA00D9"/>
<path d="M279.286 21.912C283.859 29.719 281.206 39.667 273.361 44.1316L-44.6109 225.083C-52.456 229.548 -62.5231 226.838 -67.0958 219.031L-87.8356 183.624C-92.4083 175.817 -89.7556 165.869 -81.9103 161.405L236.062 -19.5472C243.907 -24.0118 253.974 -21.3023 258.547 -13.4953L279.286 21.912Z" fill="white" fill-opacity="0.87"/>
<path d="M398.327 31.0064C402.9 38.8134 400.247 48.7615 392.402 53.2259L14.6878 268.176C6.84252 272.641 -3.22439 269.931 -7.79727 262.124L-26.315 230.51C-30.8879 222.703 -28.2351 212.755 -20.3897 208.29L357.325 -6.65978C365.17 -11.1244 375.237 -8.41485 379.81 -0.607902L398.327 31.0064Z" fill="#C802CC" fill-opacity="0.64"/>
<path opacity="0.72" d="M502.465 18.119C507.037 25.926 504.385 35.874 496.538 40.3386L241.343 185.566C233.498 190.03 223.431 187.321 218.858 179.514L200.34 147.899C195.767 140.093 198.42 130.144 206.265 125.68L461.462 -19.5472C469.307 -24.0118 479.374 -21.3023 483.947 -13.4954L502.465 18.119Z" fill="#BA00D9"/>
<path opacity="0.68" d="M417.464 126.237C422.037 134.044 419.384 143.992 411.539 148.456L-52.1499 412.332C-59.9952 416.797 -70.0618 414.087 -74.6345 406.28L-93.1525 374.666C-97.7252 366.859 -95.0725 356.911 -87.2272 352.446L376.461 88.5703C384.307 84.106 394.373 86.8153 398.946 94.6225L417.464 126.237Z" fill="#BA00D9"/>
<path d="M489.828 -179.804C494.401 -171.997 491.748 -162.049 483.903 -157.584L165.931 23.3673C158.086 27.8319 148.018 25.1224 143.446 17.3155L123.709 -16.3797C119.136 -24.1866 121.789 -34.1347 129.635 -38.5993L447.606 -219.551C455.452 -224.016 465.519 -221.306 470.091 -213.499L489.828 -179.804Z" fill="#BA00D9"/>
<path d="M238.48 -82.0112C243.053 -74.204 240.4 -64.2562 232.555 -59.7914L-72.0581 113.557C-79.9034 118.022 -89.97 115.312 -94.5433 107.506L-113.061 75.8914C-117.634 68.0842 -114.981 58.1363 -107.135 53.6716L197.477 -119.677C205.323 -124.142 215.389 -121.432 219.962 -113.626L238.48 -82.0112Z" fill="#C802CC" fill-opacity="0.64"/>
<path opacity="0.88" d="M365.721 463.031C361.012 455.306 363.491 445.314 371.259 440.714L424.081 409.43C431.848 404.83 441.962 407.363 446.671 415.087L463.969 443.463C468.678 451.188 466.198 461.179 458.431 465.779L405.609 497.064C397.842 501.662 387.727 499.132 383.018 491.406L365.721 463.031Z" fill="white"/>
<path opacity="0.9" d="M444.314 -29.7543C448.888 -21.9473 446.234 -11.9993 438.389 -7.53465L183.113 137.738C175.268 142.203 165.201 139.493 160.628 131.686L142.11 100.072C137.537 92.2647 140.19 82.3168 148.035 77.8521L403.312 -67.4207C411.157 -71.8849 421.224 -69.1757 425.797 -61.3685L444.314 -29.7543Z" fill="#2FEE92"/>
<path opacity="0.82" d="M133.473 -79.7551C138.046 -71.9479 135.393 -62.0001 127.548 -57.5353L-98.6396 71.1837C-106.485 75.648 -116.552 72.9387 -121.125 65.1315L-139.643 33.5173C-144.215 25.7103 -141.563 15.7623 -133.717 11.2977L92.4704 -117.421C100.316 -121.886 110.382 -119.176 114.956 -111.369L133.473 -79.7551Z" fill="#2FEE92"/>
<path d="M525.128 -127.629C529.705 -119.821 527.048 -109.874 519.207 -105.409L264.008 39.8183C256.163 44.2829 246.096 41.5734 241.524 33.7664L223.006 2.1521C218.433 -5.65485 221.086 -15.6029 228.931 -20.0675L484.127 -165.295C491.973 -169.759 502.04 -167.05 506.611 -159.243L525.128 -127.629Z" fill="#E597FF" fill-opacity="0.97"/>
</g>
<g filter="url(#filter1_d)">
<circle cx="192" cy="173" r="121" fill="white"/>
<path d="M259.623 167.458C259.623 198.998 229.783 225.415 191.846 225.415C153.91 225.415 124.07 198.998 124.07 167.458C124.07 135.917 153.91 109.5 191.846 109.5C229.783 109.5 259.623 135.917 259.623 167.458Z" stroke="black" stroke-width="7"/>
<path d="M259.623 167.458C259.623 198.998 229.783 225.415 191.846 225.415C153.91 225.415 124.07 198.998 124.07 167.458C124.07 135.917 153.91 109.5 191.846 109.5C229.783 109.5 259.623 135.917 259.623 167.458Z" stroke="url(#paint0_linear)" stroke-width="7"/>
<path d="M211.802 168.47C211.802 178.676 204.032 201.322 185.817 201.322C167.603 201.322 159.06 178.676 159.06 168.47C159.06 158.264 159.06 165.047 185.817 182.843C212.575 200.638 211.802 158.264 211.802 168.47Z" fill="url(#paint1_linear)"/>
<path d="M196.322 183.217C188.83 180.143 160.955 157.072 173.439 164.567C177.69 167.118 180.485 166.248 182.64 163.83C191.746 153.611 202.478 145.491 213.992 137.655C220.587 133.167 224.098 129.029 215.271 131.317C204.466 134.119 197.932 142.878 198.58 153.057C199.485 167.277 201.244 185.236 196.322 183.217Z" fill="url(#paint2_radial)" fill-opacity="0.77"/>
<path d="M161.063 258.859L153.108 249.905V258.859H149.741V231.479H153.108V247.574L160.915 238.583H165.614L156.068 248.684L165.651 258.859H161.063ZM172.002 235.29C171.361 235.29 170.818 235.068 170.374 234.624C169.93 234.18 169.708 233.637 169.708 232.996C169.708 232.355 169.93 231.812 170.374 231.368C170.818 230.924 171.361 230.702 172.002 230.702C172.619 230.702 173.137 230.924 173.556 231.368C174 231.812 174.222 232.355 174.222 232.996C174.222 233.637 174 234.18 173.556 234.624C173.137 235.068 172.619 235.29 172.002 235.29ZM173.63 238.583V258.859H170.263V238.583H173.63ZM189.692 259.192C187.792 259.192 186.066 258.76 184.512 257.897C182.982 257.034 181.774 255.813 180.886 254.234C180.022 252.631 179.591 250.781 179.591 248.684C179.591 246.612 180.035 244.787 180.923 243.208C181.835 241.605 183.069 240.384 184.623 239.545C186.177 238.682 187.916 238.25 189.84 238.25C191.764 238.25 193.503 238.682 195.057 239.545C196.611 240.384 197.832 241.592 198.72 243.171C199.632 244.75 200.089 246.587 200.089 248.684C200.089 250.781 199.62 252.631 198.683 254.234C197.77 255.813 196.524 257.034 194.946 257.897C193.367 258.76 191.616 259.192 189.692 259.192ZM189.692 256.232C190.9 256.232 192.035 255.948 193.096 255.381C194.156 254.814 195.007 253.963 195.649 252.828C196.315 251.693 196.648 250.312 196.648 248.684C196.648 247.056 196.327 245.675 195.686 244.54C195.044 243.405 194.206 242.567 193.17 242.024C192.134 241.457 191.011 241.173 189.803 241.173C188.569 241.173 187.435 241.457 186.399 242.024C185.387 242.567 184.573 243.405 183.957 244.54C183.34 245.675 183.032 247.056 183.032 248.684C183.032 250.337 183.328 251.73 183.92 252.865C184.536 254 185.35 254.851 186.362 255.418C187.373 255.961 188.483 256.232 189.692 256.232ZM210.102 241.358V253.309C210.102 254.296 210.312 254.999 210.732 255.418C211.151 255.813 211.879 256.01 212.914 256.01H215.394V258.859H212.36C210.485 258.859 209.079 258.427 208.141 257.564C207.204 256.701 206.735 255.282 206.735 253.309V241.358H204.108V238.583H206.735V233.477H210.102V238.583H215.394V241.358H210.102ZM219.695 248.647C219.695 246.575 220.114 244.762 220.953 243.208C221.792 241.629 222.939 240.408 224.394 239.545C225.874 238.682 227.514 238.25 229.315 238.25C231.091 238.25 232.633 238.632 233.94 239.397C235.247 240.162 236.222 241.124 236.863 242.283V238.583H240.267V258.859H236.863V255.085C236.197 256.269 235.198 257.256 233.866 258.045C232.559 258.81 231.029 259.192 229.278 259.192C227.477 259.192 225.849 258.748 224.394 257.86C222.939 256.972 221.792 255.726 220.953 254.123C220.114 252.52 219.695 250.694 219.695 248.647ZM236.863 248.684C236.863 247.155 236.555 245.823 235.938 244.688C235.321 243.553 234.483 242.69 233.422 242.098C232.386 241.481 231.239 241.173 229.981 241.173C228.723 241.173 227.576 241.469 226.54 242.061C225.504 242.653 224.678 243.516 224.061 244.651C223.444 245.786 223.136 247.118 223.136 248.647C223.136 250.201 223.444 251.558 224.061 252.717C224.678 253.852 225.504 254.727 226.54 255.344C227.576 255.936 228.723 256.232 229.981 256.232C231.239 256.232 232.386 255.936 233.422 255.344C234.483 254.727 235.321 253.852 235.938 252.717C236.555 251.558 236.863 250.213 236.863 248.684Z" fill="#BA00D9" fill-opacity="0.72"/>
</g>
</g>
<defs>
<filter id="filter0_d" x="-321.895" y="-221.702" width="937.662" height="1048.59" filterUnits="userSpaceOnUse" color-interpolation-filters="sRGB">
<feFlood flood-opacity="0" result="BackgroundImageFix"/>
<feColorMatrix in="SourceAlpha" type="matrix" values="0 0 0 0 0 0 0 0 0 0 0 0 0 0 0 0 0 0 127 0"/>
<feOffset dy="4"/>
<feGaussianBlur stdDeviation="2"/>
<feColorMatrix type="matrix" values="0 0 0 0 0 0 0 0 0 0 0 0 0 0 0 0 0 0 0.25 0"/>
<feBlend mode="normal" in2="BackgroundImageFix" result="effect1_dropShadow"/>
<feBlend mode="normal" in="SourceGraphic" in2="effect1_dropShadow" result="shape"/>
</filter>
<filter id="filter1_d" x="67" y="52" width="250" height="250" filterUnits="userSpaceOnUse" color-interpolation-filters="sRGB">
<feFlood flood-opacity="0" result="BackgroundImageFix"/>
<feColorMatrix in="SourceAlpha" type="matrix" values="0 0 0 0 0 0 0 0 0 0 0 0 0 0 0 0 0 0 127 0"/>
<feOffset dy="4"/>
<feGaussianBlur stdDeviation="2"/>
<feColorMatrix type="matrix" values="0 0 0 0 0 0 0 0 0 0 0 0 0 0 0 0 0 0 0.25 0"/>
<feBlend mode="normal" in2="BackgroundImageFix" result="effect1_dropShadow"/>
<feBlend mode="normal" in="SourceGraphic" in2="effect1_dropShadow" result="shape"/>
</filter>
<linearGradient id="paint0_linear" x1="191.846" y1="106" x2="191.846" y2="228.915" gradientUnits="userSpaceOnUse">
<stop stop-color="#2FEE92"/>
<stop offset="1" stop-color="#BA00D9"/>
</linearGradient>
<linearGradient id="paint1_linear" x1="185.432" y1="163.695" x2="185.432" y2="201.322" gradientUnits="userSpaceOnUse">
<stop stop-color="#2FEE92"/>
<stop offset="1" stop-color="#BA00D9" stop-opacity="0.72"/>
</linearGradient>
<radialGradient id="paint2_radial" cx="0" cy="0" r="1" gradientUnits="userSpaceOnUse" gradientTransform="translate(203.251 119.888) rotate(155.631) scale(2.08222e-06)">
<stop stop-color="#BA00D9"/>
<stop offset="1" stop-color="#2FEE92"/>
</radialGradient>
<clipPath id="clip0">
<rect width="375" height="667" fill="white"/>
</clipPath>
</defs>
</svg>
