<svg width="88" height="96" viewBox="0 0 88 96" fill="none" xmlns="http://www.w3.org/2000/svg">
<path d="M17.8608 89.676C17.8608 88.988 18.0008 88.388 18.2808 87.876C18.5608 87.356 18.9488 86.956 19.4448 86.676C19.9408 86.388 20.5088 86.244 21.1488 86.244C21.9728 86.244 22.6528 86.452 23.1888 86.868C23.7328 87.276 24.0968 87.852 24.2808 88.596H22.4688C22.3728 88.308 22.2088 88.084 21.9768 87.924C21.7528 87.756 21.4728 87.672 21.1368 87.672C20.6568 87.672 20.2768 87.848 19.9968 88.2C19.7168 88.544 19.5768 89.036 19.5768 89.676C19.5768 90.308 19.7168 90.8 19.9968 91.152C20.2768 91.496 20.6568 91.668 21.1368 91.668C21.8168 91.668 22.2608 91.364 22.4688 90.756H24.2808C24.0968 91.476 23.7328 92.048 23.1888 92.472C22.6448 92.896 21.9648 93.108 21.1488 93.108C20.5088 93.108 19.9408 92.968 19.4448 92.688C18.9488 92.4 18.5608 92 18.2808 91.488C18.0008 90.968 17.8608 90.364 17.8608 89.676ZM28.4636 93.108C27.8236 93.108 27.2476 92.968 26.7356 92.688C26.2236 92.4 25.8196 91.996 25.5236 91.476C25.2356 90.956 25.0916 90.356 25.0916 89.676C25.0916 88.996 25.2396 88.396 25.5356 87.876C25.8396 87.356 26.2516 86.956 26.7716 86.676C27.2916 86.388 27.8716 86.244 28.5116 86.244C29.1516 86.244 29.7316 86.388 30.2516 86.676C30.7716 86.956 31.1796 87.356 31.4756 87.876C31.7796 88.396 31.9316 88.996 31.9316 89.676C31.9316 90.356 31.7756 90.956 31.4636 91.476C31.1596 91.996 30.7436 92.4 30.2156 92.688C29.6956 92.968 29.1116 93.108 28.4636 93.108ZM28.4636 91.644C28.7676 91.644 29.0516 91.572 29.3156 91.428C29.5876 91.276 29.8036 91.052 29.9636 90.756C30.1236 90.46 30.2036 90.1 30.2036 89.676C30.2036 89.044 30.0356 88.56 29.6996 88.224C29.3716 87.88 28.9676 87.708 28.4876 87.708C28.0076 87.708 27.6036 87.88 27.2756 88.224C26.9556 88.56 26.7956 89.044 26.7956 89.676C26.7956 90.308 26.9516 90.796 27.2636 91.14C27.5836 91.476 27.9836 91.644 28.4636 91.644ZM36.8479 86.256C37.6399 86.256 38.2799 86.508 38.7679 87.012C39.2559 87.508 39.4999 88.204 39.4999 89.1V93H37.8199V89.328C37.8199 88.8 37.6879 88.396 37.4239 88.116C37.1599 87.828 36.7999 87.684 36.3439 87.684C35.8799 87.684 35.5119 87.828 35.2399 88.116C34.9759 88.396 34.8439 88.8 34.8439 89.328V93H33.1639V86.352H34.8439V87.18C35.0679 86.892 35.3519 86.668 35.6959 86.508C36.0479 86.34 36.4319 86.256 36.8479 86.256ZM43.0535 87.732V90.948C43.0535 91.172 43.1055 91.336 43.2095 91.44C43.3215 91.536 43.5055 91.584 43.7615 91.584H44.5415V93H43.4855C42.0695 93 41.3615 92.312 41.3615 90.936V87.732H40.5695V86.352H41.3615V84.708H43.0535V86.352H44.5415V87.732H43.0535ZM46.6019 85.56C46.3059 85.56 46.0579 85.468 45.8579 85.284C45.6659 85.092 45.5699 84.856 45.5699 84.576C45.5699 84.296 45.6659 84.064 45.8579 83.88C46.0579 83.688 46.3059 83.592 46.6019 83.592C46.8979 83.592 47.1419 83.688 47.3339 83.88C47.5339 84.064 47.6339 84.296 47.6339 84.576C47.6339 84.856 47.5339 85.092 47.3339 85.284C47.1419 85.468 46.8979 85.56 46.6019 85.56ZM47.4299 86.352V93H45.7499V86.352H47.4299ZM52.7737 86.256C53.5657 86.256 54.2057 86.508 54.6937 87.012C55.1817 87.508 55.4257 88.204 55.4257 89.1V93H53.7457V89.328C53.7457 88.8 53.6137 88.396 53.3497 88.116C53.0857 87.828 52.7257 87.684 52.2697 87.684C51.8057 87.684 51.4377 87.828 51.1657 88.116C50.9017 88.396 50.7697 88.8 50.7697 89.328V93H49.0897V86.352H50.7697V87.18C50.9937 86.892 51.2777 86.668 51.6217 86.508C51.9737 86.34 52.3577 86.256 52.7737 86.256ZM63.2993 86.352V93H61.6073V92.16C61.3913 92.448 61.1073 92.676 60.7553 92.844C60.4113 93.004 60.0353 93.084 59.6273 93.084C59.1073 93.084 58.6473 92.976 58.2473 92.76C57.8473 92.536 57.5313 92.212 57.2993 91.788C57.0753 91.356 56.9633 90.844 56.9633 90.252V86.352H58.6433V90.012C58.6433 90.54 58.7753 90.948 59.0393 91.236C59.3033 91.516 59.6633 91.656 60.1193 91.656C60.5833 91.656 60.9473 91.516 61.2113 91.236C61.4753 90.948 61.6073 90.54 61.6073 90.012V86.352H63.2993ZM71.1369 89.532C71.1369 89.772 71.1209 89.988 71.0889 90.18H66.2289C66.2689 90.66 66.4369 91.036 66.7329 91.308C67.0289 91.58 67.3929 91.716 67.8249 91.716C68.4489 91.716 68.8929 91.448 69.1569 90.912H70.9689C70.7769 91.552 70.4089 92.08 69.8649 92.496C69.3209 92.904 68.6529 93.108 67.8609 93.108C67.2209 93.108 66.6449 92.968 66.1329 92.688C65.6289 92.4 65.2329 91.996 64.9449 91.476C64.6649 90.956 64.5249 90.356 64.5249 89.676C64.5249 88.988 64.6649 88.384 64.9449 87.864C65.2249 87.344 65.6169 86.944 66.1209 86.664C66.6249 86.384 67.2049 86.244 67.8609 86.244C68.4929 86.244 69.0569 86.38 69.5529 86.652C70.0569 86.924 70.4449 87.312 70.7169 87.816C70.9969 88.312 71.1369 88.884 71.1369 89.532ZM69.3969 89.052C69.3889 88.62 69.2329 88.276 68.9289 88.02C68.6249 87.756 68.2529 87.624 67.8129 87.624C67.3969 87.624 67.0449 87.752 66.7569 88.008C66.4769 88.256 66.3049 88.604 66.2409 89.052H69.3969Z" fill="#BA00D9"/>
<g filter="url(#filter0_d)">
<path d="M82 40.5C82 61.7865 64.9635 79 44 79C23.0365 79 6 61.7865 6 40.5C6 19.2135 23.0365 2 44 2C64.9635 2 82 19.2135 82 40.5Z" fill="white" stroke="url(#paint0_linear)" stroke-width="4"/>
<path d="M51.8997 57.7418C47.0723 55.6247 29.1114 39.7353 37.1556 44.8971C37.5847 45.1724 37.9908 45.39 38.3759 45.5545C50.0603 50.5484 62.0325 33.4778 67.3875 22.5086C67.6259 22.0203 67.5313 21.687 66.9972 21.5834C57.9447 19.8275 52.9583 30.7806 53.5086 39.4578C54.0965 48.7259 54.8076 59.0169 51.8997 57.7418Z" fill="url(#paint1_radial)" fill-opacity="0.77"/>
<path d="M61.6875 49.1374C61.6875 56.1665 56.681 71.7637 44.9448 71.7637C33.2085 71.7637 27.7037 56.1665 27.7037 49.1374C27.7037 42.1083 27.7037 46.7805 44.9448 59.0364C62.1858 71.2924 61.6875 42.1083 61.6875 49.1374Z" fill="url(#paint2_linear)"/>
</g>
<defs>
<filter id="filter0_d" x="0" y="0" width="88" height="89" filterUnits="userSpaceOnUse" color-interpolation-filters="sRGB">
<feFlood flood-opacity="0" result="BackgroundImageFix"/>
<feColorMatrix in="SourceAlpha" type="matrix" values="0 0 0 0 0 0 0 0 0 0 0 0 0 0 0 0 0 0 127 0"/>
<feOffset dy="4"/>
<feGaussianBlur stdDeviation="2"/>
<feColorMatrix type="matrix" values="0 0 0 0 0 0 0 0 0 0 0 0 0 0 0 0 0 0 0.25 0"/>
<feBlend mode="normal" in2="BackgroundImageFix" result="effect1_dropShadow"/>
<feBlend mode="normal" in="SourceGraphic" in2="effect1_dropShadow" result="shape"/>
</filter>
<linearGradient id="paint0_linear" x1="44" y1="0" x2="44" y2="81" gradientUnits="userSpaceOnUse">
<stop stop-color="#2FEE92"/>
<stop offset="1" stop-color="#BA00D9"/>
</linearGradient>
<radialGradient id="paint1_radial" cx="0" cy="0" r="1" gradientUnits="userSpaceOnUse" gradientTransform="translate(54.1901 8.02876) rotate(154.166) scale(1.35783e-06)">
<stop stop-color="#BA00D9"/>
<stop offset="1" stop-color="#2FEE92"/>
</radialGradient>
<linearGradient id="paint2_linear" x1="44.6963" y1="45.8491" x2="44.6963" y2="71.7637" gradientUnits="userSpaceOnUse">
<stop stop-color="#2FEE92"/>
<stop offset="1" stop-color="#BA00D9" stop-opacity="0.72"/>
</linearGradient>
</defs>
</svg>
